<svg width="18" height="18" viewBox="0 0 18 18" fill="none" xmlns="http://www.w3.org/2000/svg">
<path d="M16.0807 8.28573L9.18821 15.1782C8.34382 16.0226 7.19859 16.497 6.00446 16.497C4.81032 16.497 3.66509 16.0226 2.82071 15.1782C1.97632 14.3338 1.50195 13.1886 1.50195 11.9945C1.50195 10.8003 1.97632 9.65511 2.82071 8.81073L9.71321 1.91823C10.2761 1.35531 11.0396 1.03906 11.8357 1.03906C12.6318 1.03906 13.3953 1.35531 13.9582 1.91823C14.5211 2.48115 14.8374 3.24464 14.8374 4.04073C14.8374 4.83682 14.5211 5.60031 13.9582 6.16323L7.05821 13.0557C6.77674 13.3372 6.395 13.4953 5.99696 13.4953C5.59891 13.4953 5.21717 13.3372 4.93571 13.0557C4.65424 12.7743 4.49612 12.3925 4.49612 11.9945C4.49612 11.5964 4.65424 11.2147 4.93571 10.9332L11.3032 4.57323" stroke="#6D7280" stroke-width="1.25" stroke-linecap="round" stroke-linejoin="round"/>
</svg>
