<?xml version="1.0" encoding="UTF-8"?>
<svg id="Layer_1" xmlns="http://www.w3.org/2000/svg" version="1.1" viewBox="0 0 1366 768">
  <!-- Generator: Adobe Illustrator 29.5.1, SVG Export Plug-In . SVG Version: 2.1.0 Build 141)  -->
  <defs>
    <style>
      .st0 {
        fill: #00d2d3;
      }

      .st1 {
        fill: #2d2d2d;
      }
    </style>
  </defs>
  <path class="st1" d="M475.78,278.5c-4.34-6.12-9.95-10.99-16.82-14.58,4.04-3.28,7.77-7.2,11.21-11.76,3.45-4.57,5.16-9.68,5.16-15.37,0-10.31-2.1-18.57-6.28-24.77-4.18-6.2-10.05-10.72-17.59-13.58-7.56-2.83-16.27-4.26-26.13-4.26h-59.43v152.49h62.57c8.21,0,15.66-1,22.32-3.02,6.65-2.02,12.33-4.97,17.04-8.87,4.71-3.87,8.3-8.58,10.76-14.13,2.47-5.53,3.69-11.8,3.69-18.84,0-9.42-2.16-17.19-6.5-23.32M394.82,218.41h26.01c4.93,0,9.15.57,12.68,1.69,3.51,1.12,6.2,3.06,8.07,5.83,1.86,2.77,2.79,6.54,2.79,11.31,0,4.34-1.2,7.97-3.59,10.89-2.38,2.92-5.71,4.97-9.97,6.16-4.26,1.2-9.09,1.79-14.48,1.79h-21.53v-37.67ZM448.77,313.16c-2.18,3.06-5.16,5.42-8.97,7.05-3.81,1.65-8.34,2.47-13.58,2.47h-31.4v-42.83h33.41c7.03,0,12.74,1.92,17.17,5.73,4.4,3.81,6.6,9.3,6.6,16.47,0,4.34-1.08,8.05-3.24,11.11"/>
  <path class="st1" d="M513.68,344.43c5.38,3.89,13.01,5.83,22.87,5.83,3.89,0,8.2-.63,12.9-1.9,4.71-1.28,9.56-3,14.58-5.16,4.99-2.16,9.89-4.89,14.68-8.2l4.71,11.66h19.06v-108.54h-28.93v75.12c-2.69,1.79-5.53,3.67-8.52,5.61-3,1.96-6.28,3.59-9.87,4.93-3.59,1.35-7.26,2.02-10.99,2.02-4.79,0-8.6-1.79-11.44-5.38s-4.26-8.81-4.26-15.7v-69.07h-29.15v70.41c0,8.38,1.04,15.9,3.14,22.55,2.1,6.65,5.83,11.93,11.21,15.8"/>
  <path class="st1" d="M649.57,351.83c-1.2,3.28-3.36,6.2-6.5,8.75-3.14,2.55-6.73,4.79-10.76,6.73-4.04,1.94-7.77,3.67-11.21,5.16l10.31,23.99c6.42-1.49,12.66-3.89,18.72-7.18,6.05-3.28,11.48-7.36,16.27-12.21,4.79-4.87,8.3-10.21,10.54-16.04l48.89-123.11h-30.95l-23.55,65.93-25.34-70.19-28.7,8.97,37.67,96.43-5.38,12.78Z"/>
  <polygon class="st1" points="573.83 418.09 552.27 452.07 528.53 414.83 501.95 422.66 534.41 470.14 498.25 523.72 529.61 523.72 550.74 492.14 570.34 523.72 601.49 523.72 569.03 474.28 605.19 418.09 573.83 418.09"/>
  <path class="st1" d="M654.94,443.57c4.16-2.75,8.91-4.14,14.28-4.14,4.93,0,9.58.63,13.94,1.86,4.36,1.23,9.07,3.01,14.16,5.33l8.06-20.25c-3.48-2.45-7.5-4.49-12.1-6.1-4.55-1.58-9.07-2.83-13.5-3.7-4.42-.87-8.16-1.31-11.21-1.31-11.19,0-20.99,2.3-29.4,6.87-8.41,4.57-14.95,11.03-19.6,19.38-4.65,8.36-6.97,18.18-6.97,29.5s2.32,20.95,6.97,29.3c4.65,8.33,11.15,14.77,19.48,19.26,8.36,4.49,18.28,6.75,29.74,6.75,3.05,0,6.75-.36,11.11-1.09,4.36-.73,8.89-1.92,13.6-3.58,4.73-1.66,8.69-3.74,11.88-6.22l-8.06-20.47c-5.09,2.34-9.88,4.12-14.37,5.35-4.49,1.23-9.07,1.84-13.72,1.84-5.23,0-9.94-1.35-14.16-4.02-4.22-2.69-7.48-6.36-9.8-11.01-2.32-4.63-3.48-10.02-3.48-16.12.14-6.1,1.35-11.5,3.58-16.22,2.26-4.71,5.44-8.46,9.58-11.23"/>
  <path class="st1" d="M810.23,420.27c-5.15-3.76-12.51-5.66-22.1-5.66-3.78,0-7.96.55-12.53,1.64-4.57,1.09-9.25,2.75-14.04,5.01-3.09,1.45-6.14,3.07-9.15,4.85v-56.15l-28.1,2.4v151.37h28.1v-72.96c2.45-1.74,5.15-3.62,8.06-5.66,2.91-2.02,6.14-3.7,9.68-5.01,3.56-1.31,7.09-1.96,10.57-1.96,4.65,0,8.38,1.74,11.21,5.23,2.83,3.48,4.26,8.57,4.26,15.24v65.34h28.1v-66.43c0-8.12-1.05-15.42-3.17-21.88-2.1-6.45-5.72-11.58-10.89-15.36"/>
  <path class="st1" d="M911.19,420.27c-6.97-3.33-14.67-5.01-23.09-5.01-2.91,0-6.87.43-11.88,1.31-5.01.87-9.9,2-14.69,3.38-4.79,1.39-8.57,3.01-11.33,4.89l7.62,23.52c3.92-1.74,8.77-3.33,14.59-4.79,5.8-1.45,11.17-2.18,16.12-2.18,5.23,0,9.32,1.5,12.3,4.48,2.99,2.97,4.53,7.07,4.69,12.29v.22h-20.69c-11.92.16-21.56,3.09-28.97,8.83-7.4,5.74-11.11,14.04-11.11,24.93,0,10.18,3.11,18.41,9.36,24.73,6.24,6.32,15.82,9.47,28.75,9.47,5.37,0,10.37-1.31,15.03-3.92,4.63-2.61,8.93-5.94,12.85-10.02l4.79,11.32h18.73v-69.48c0-7.54-2.12-14.26-6.32-20.14-4.22-5.88-9.8-10.49-16.77-13.84M905.74,493.45c-3.64,3.49-7.48,6.1-11.54,7.84-4.08,1.74-8.06,2.61-11.98,2.61-2.48,0-4.69-.57-6.65-1.74-1.96-1.15-3.54-2.61-4.79-4.36-1.23-1.74-1.84-3.62-1.84-5.66,0-3.76,1.35-7.19,4.02-10.24,2.69-3.05,6.49-4.57,11.44-4.57h21.34v16.12Z"/>
  <path class="st1" d="M1043.27,420.27c-5.15-3.76-12.51-5.66-22.1-5.66-3.78,0-7.96.55-12.53,1.64-4.57,1.09-9.25,2.75-14.04,5.01-4.79,2.26-9.52,4.89-14.16,7.94l-4.79-11.11h-18.51v105.63h28.31v-72.96c2.45-1.74,5.19-3.62,8.16-5.66,2.97-2.02,6.22-3.7,9.7-5.01,3.49-1.31,6.97-1.96,10.45-1.96,4.63,0,8.38,1.74,11.21,5.23,2.83,3.48,4.26,8.57,4.26,15.24v65.34h28.1v-66.43c0-8.12-1.07-15.42-3.17-21.88-2.1-6.45-5.74-11.58-10.89-15.36"/>
  <path class="st1" d="M1158.11,427.44c-.79-.71-1.64-1.39-2.55-2.04-4.08-2.97-8.53-5.41-13.4-7.31-4.87-1.88-9.54-2.83-14.04-2.83-11.32,0-21.03,2.36-29.09,7.09-8.06,4.71-14.23,11.25-18.51,19.6-4.28,8.33-6.41,18.12-6.41,29.28s2.1,20.89,6.32,29.09c4.2,8.2,10.34,14.59,18.39,19.17,8.06,4.57,17.46,6.85,28.21,6.85,5.23,0,10.04-.79,14.47-2.4,3.23-1.15,6.32-2.69,9.27-4.63v8.99c0,7.11-2.65,12.67-7.96,16.67-5.31,3.98-12.16,6.06-20.57,6.2-5.38,0-10.75-.73-16.12-2.18-5.38-1.45-11.27-3.84-17.64-7.19l-8.71,20.04c2.89,1.88,6.32,3.6,10.24,5.13,3.92,1.53,7.94,2.79,12.08,3.8,4.14,1.01,8.14,1.78,11.98,2.3,3.84.5,6.87.75,9.05.75,11.03,0,20.75-1.7,29.18-5.11,8.42-3.42,14.99-8.47,19.7-15.15,4.71-6.67,7.09-14.95,7.09-24.83v-110.64h-14.81l-6.16,9.35ZM1142.37,498.68c-4.44,2.34-9.11,3.49-14.04,3.49s-9.52-1.35-13.28-4.02c-3.78-2.69-6.69-6.36-8.71-11.01-2.04-4.63-3.05-9.94-3.05-15.9s.93-11.72,2.83-16.43c1.88-4.71,4.75-8.45,8.59-11.23,3.84-2.75,8.4-4.14,13.62-4.14,4.93,0,9.6,1.07,14.04,3.17,2.67,1.27,5.48,3.19,8.4,5.76v44.91c-2.91,2.2-5.72,4-8.4,5.41"/>
  <path class="st1" d="M1299.08,470.58c0-10.02-1.72-19.23-5.13-27.66-3.41-8.42-8.71-15.13-15.9-20.14s-16.23-7.52-27.12-7.52-20.49,2.3-28.41,6.87c-7.92,4.57-14.02,11.03-18.29,19.38-4.28,8.36-6.41,18.18-6.41,29.5s2.28,20.95,6.85,29.3c4.57,8.34,11.36,14.77,20.37,19.27,8.99,4.49,20.31,6.75,33.98,6.75,6.1,0,11.5-.54,16.22-1.62,4.71-1.09,9.01-2.65,12.85-4.69,3.84-2.02,7.31-4.28,10.36-6.75l-8.06-20.69c-4.65,2.77-9.4,5.05-14.27,6.87-4.87,1.82-10.34,2.71-16.43,2.71-6.99,0-12.63-.93-16.99-2.83-4.36-1.88-7.7-4.53-10.04-7.94-2.32-3.41-3.9-7.44-4.79-12.1h71.24v-8.71ZM1228.08,460.34c.87-4.63,2.28-8.49,4.24-11.54,1.96-3.05,4.49-5.37,7.62-6.97,3.13-1.58,6.57-2.4,10.34-2.4s7.17.77,10.14,2.3c2.97,1.52,5.48,3.8,7.52,6.85,2.02,3.05,3.46,6.97,4.36,11.76h-44.21Z"/>
  <g>
    <path class="st0" d="M115.39,419.76c-16.18-20.75-32.32-41.54-48.47-62.33v4.44h.21v144.95c1.94-2.51,3.89-5.01,5.83-7.51,17.34-22.3,34.7-44.57,52.58-67.53-3.46-4.1-6.94-7.91-10.15-12.03Z"/>
    <path class="st0" d="M290.3,389.16c-8.31-11.74-18.91-21.18-31.79-28.32,12.79-7.12,23.32-16.52,31.58-28.19,8.81-12.46,13.21-28.25,13.21-47.37,0-14.27-2.5-27.03-7.51-38.25-5.01-11.24-12.3-20.8-21.87-28.69-7.55-6.23-16.32-11.28-26.33-15.14-4.97,6.44-9.96,12.87-14.95,19.29-17.34,22.3-34.7,44.57-52.58,67.53,3.46,4.09,6.94,7.91,10.15,12.03,21.61,27.71,43.17,55.5,64.73,83.26h-71.78c-.66-1.09-1.24-2.28-1.99-3.25-9.73-12.54-19.48-25.04-29.22-37.57-14.2-18.29-28.39-36.6-42.96-55.37.96-.99,1.91-1.78,2.7-2.78,23.09-29.69,46.18-59.4,69.24-89.12.71-.92,1.29-1.99,1.91-3.03h-115.93v142.3h55.53c.65,1.1,1.23,2.28,1.98,3.25,9.73,12.54,19.49,25.04,29.22,37.57,14.21,18.29,28.4,36.59,42.96,55.37-.97.99-1.92,1.78-2.7,2.78-23.09,29.68-46.17,59.39-69.24,89.11-.72.92-1.3,2-1.91,3.04h71.45c16.7,0,31.8-2.06,45.31-6.15,13.51-4.11,25.06-10.1,34.62-18,9.57-7.89,16.86-17.46,21.87-28.7,5.01-11.23,7.51-23.98,7.51-38.25,0-19.13-4.4-34.92-13.21-47.36Z"/>
  </g>
  <path class="st1" d="M493.5,516.74c-11.66,5.71-26.76,8.45-41.38,8.45-30.87,0-56.02-16.45-66.99-43.88h-19.23v-19.67h14.21c-.46-3.88-.69-8.24-.69-12.58v-3.21h-13.52v-18.51h16.03c8.24-33.6,35.44-54.42,70.19-54.42,14.63,0,29.72,2.75,41.37,8.46l-3.2,25.83c-12.34-5.25-23.55-9.14-38.18-9.14-21.49,0-34.3,11.43-39.78,29.26h57.39l-6.87,18.51h-53.49v3.21c0,4.57.22,8.69.91,12.58h55.1l-6.86,19.67h-41.84c6.86,11.88,18.52,18.74,35.44,18.74,14.63,0,25.83-3.88,38.18-9.15l3.21,25.83Z"/>
</svg>