<svg width="1340" height="300" viewBox="0 0 1340 300" fill="none" xmlns="http://www.w3.org/2000/svg">
<g clip-path="url(#clip0_1_5679)">
<rect width="1339.69" height="300" rx="8.4375" fill="#F1F7FF"/>
<circle cx="1172.67" cy="150.38" r="262.086" transform="rotate(-30 1172.67 150.38)" fill="#094B72"/>
<path d="M1273.21 393.57C1234.65 371.306 1206.54 334.582 1195.07 291.477C1183.6 248.371 1189.71 202.415 1212.05 163.718C1234.39 125.022 1271.14 96.7543 1314.2 85.1347C1357.27 73.515 1403.13 79.4949 1441.69 101.759L1405.66 164.157C1383.59 151.415 1357.35 147.992 1332.7 154.643C1308.05 161.293 1287.02 177.471 1274.23 199.619C1261.45 221.767 1257.95 248.069 1264.51 272.74C1271.08 297.411 1287.17 318.429 1309.24 331.172L1273.21 393.57Z" fill="#F1F7FF"/>
</g>
<defs>
<clipPath id="clip0_1_5679">
<rect width="1339.69" height="300" rx="8.4375" fill="white"/>
</clipPath>
</defs>
</svg>
