<svg width="17" height="14" viewBox="0 0 17 14" fill="none" xmlns="http://www.w3.org/2000/svg">
<path d="M4.1875 13.3708C4.03003 13.3708 3.87901 13.3137 3.76766 13.212C3.65631 13.1103 3.59375 12.9724 3.59375 12.8286V0.899648C3.5938 0.804435 3.6213 0.710911 3.67348 0.628484C3.72567 0.546057 3.8007 0.477632 3.89104 0.430092C3.98137 0.382551 4.08382 0.357572 4.18808 0.357665C4.29234 0.357758 4.39474 0.382921 4.48497 0.430622L15.7662 6.39511C15.8562 6.44277 15.9309 6.51119 15.9828 6.5935C16.0347 6.67581 16.062 6.76914 16.062 6.86413C16.062 6.95912 16.0347 7.05245 15.9828 7.13476C15.9309 7.21708 15.8562 7.28549 15.7662 7.33316L4.48497 13.2976C4.39459 13.3455 4.29198 13.3708 4.1875 13.3708ZM0.625 0.357422H1.8125V13.3708H0.625V0.357422Z" fill="white"/>
</svg>
