<svg width="20" height="20" viewBox="0 0 20 20" fill="none" xmlns="http://www.w3.org/2000/svg">
<path d="M14.1663 11.6673V16.6673M11.6663 14.1673H16.6663M4.99967 8.33398H6.66634C7.58682 8.33398 8.33301 7.58779 8.33301 6.66732V5.00065C8.33301 4.08018 7.58682 3.33398 6.66634 3.33398H4.99967C4.0792 3.33398 3.33301 4.08018 3.33301 5.00065V6.66732C3.33301 7.58779 4.0792 8.33398 4.99967 8.33398ZM13.333 8.33398H14.9997C15.9201 8.33398 16.6663 7.58779 16.6663 6.66732V5.00065C16.6663 4.08018 15.9201 3.33398 14.9997 3.33398H13.333C12.4125 3.33398 11.6663 4.08018 11.6663 5.00065V6.66732C11.6663 7.58779 12.4125 8.33398 13.333 8.33398ZM4.99967 16.6673H6.66634C7.58682 16.6673 8.33301 15.9211 8.33301 15.0007V13.334C8.33301 12.4135 7.58682 11.6673 6.66634 11.6673H4.99967C4.0792 11.6673 3.33301 12.4135 3.33301 13.334V15.0007C3.33301 15.9211 4.0792 16.6673 4.99967 16.6673Z" stroke="#094B72" stroke-width="1.5" stroke-linecap="round" stroke-linejoin="round"/>
</svg>
