<svg width="1241" height="472" viewBox="0 0 1241 472" fill="none" xmlns="http://www.w3.org/2000/svg">
<g filter="url(#filter0_d_88_85640)">
<path d="M26.9531 332.145C79.8361 367.682 203.009 434.693 272.639 418.448C359.675 398.141 381.159 293.563 515.57 269.195C649.981 244.828 732.741 307.67 836.855 185.324C953.438 48.3242 1073.79 -7.28024 1213.71 9.98025" stroke="#F73770" stroke-width="5" stroke-linecap="round" stroke-linejoin="round"/>
</g>
<rect x="140.684" y="372.231" width="68.1783" height="64.9507" rx="20" fill="white"/>
<rect x="161.989" y="392.528" width="24.5016" height="23.3417" rx="10" fill="#C4C4C4"/>
<rect x="603.307" y="234.315" width="68.1783" height="64.9507" rx="20" fill="white"/>
<rect x="624.613" y="254.612" width="24.5016" height="23.3417" rx="10" fill="#C4C4C4"/>
<rect x="1012.54" y="0.824219" width="68.1783" height="64.9507" rx="20" fill="white"/>
<rect x="1033.85" y="21.1211" width="24.5016" height="23.3417" rx="10" fill="#C4C4C4"/>
<defs>
<filter id="filter0_d_88_85640" x="0.452637" y="4.42725" width="1239.75" height="467.017" filterUnits="userSpaceOnUse" color-interpolation-filters="sRGB">
<feFlood flood-opacity="0" result="BackgroundImageFix"/>
<feColorMatrix in="SourceAlpha" type="matrix" values="0 0 0 0 0 0 0 0 0 0 0 0 0 0 0 0 0 0 127 0" result="hardAlpha"/>
<feOffset dy="24"/>
<feGaussianBlur stdDeviation="12"/>
<feComposite in2="hardAlpha" operator="out"/>
<feColorMatrix type="matrix" values="0 0 0 0 0.215686 0 0 0 0 0.203922 0 0 0 0 0.662745 0 0 0 0.3 0"/>
<feBlend mode="normal" in2="BackgroundImageFix" result="effect1_dropShadow_88_85640"/>
<feBlend mode="normal" in="SourceGraphic" in2="effect1_dropShadow_88_85640" result="shape"/>
</filter>
</defs>
</svg>
