<svg width="338" height="321" viewBox="0 0 338 321" fill="none" xmlns="http://www.w3.org/2000/svg">
<path d="M163.253 126.905C193.93 139.548 184.366 185.606 153.973 199.152C117.89 215.231 83.8305 186.264 84.6053 150.784C85.3339 117.49 116.843 94.0226 146.429 84.6735C177.664 74.8004 255.992 79.5133 255.746 29.7956C255.737 28.2196 258.193 27.1347 258.653 28.8252C265.061 52.4149 242.896 71.1323 221.436 78.1822C189.318 88.7341 152.473 84.4815 123.477 106.399C109.778 116.754 98.4963 132.754 100.421 149.554C102.335 166.295 115.808 182.591 133.67 182.498C148.98 182.416 168.568 166.067 161.055 149.849C151.704 129.666 119.604 150.012 135.129 168.873C136.054 169.998 134.854 171.593 133.501 171.643C116.547 172.257 112.261 152.448 121.318 139.415C131.226 125.161 149.173 121.103 163.253 126.905ZM169.036 229.075C165.975 248.227 136.858 249.78 122.445 250.463C103.891 251.342 86.9981 245.803 74.8421 232.939C54.9907 211.936 43.9066 158.514 79.1782 138.868C81.3038 137.683 83.8164 140.048 82.6749 142.215C69.614 166.974 70.5823 198.162 87.9242 217.564C97.1825 227.922 110.064 231.397 124.481 230.705C130.695 230.409 137.114 229.494 143.311 228.087C149.688 226.638 155.47 223.361 161.809 222.127C166.137 221.283 169.73 224.736 169.036 229.075ZM155.881 273.72C148.12 287.449 129.521 290.791 115.616 291.22C100.369 291.69 85.3701 287.345 73.2915 279.395C47.6613 262.519 39.0178 229.905 49.5653 199.063C50.1081 197.475 52.1169 198.196 52.0554 199.536C50.8393 225.175 58.6654 254.037 79.7639 267.859C90.1667 274.675 103.145 276.943 116.245 274.962C127.513 273.255 137.157 264.491 147.842 263.399C153.129 262.858 159.306 267.669 155.881 273.72ZM270.734 48.2489C268.402 66.1342 253.129 78.59 237.392 86.2581C225.071 92.2601 211.904 96.1296 199.107 100.507C188.331 104.195 177.188 109.188 166.077 110.558C164.711 110.726 164.378 109.069 165.573 108.363C200.74 87.6077 249.165 91.0854 269.253 47.9668C269.647 47.1214 270.848 47.363 270.734 48.2489ZM266.461 82.8334C256.098 95.8406 242.892 103.035 227.891 108.848C219.062 112.271 210.116 115.219 201.35 118.868C194.36 121.775 187.924 125.495 180.574 126.688C179.18 126.915 178.245 125.417 179.153 124.195C187.191 113.361 202.171 110.363 214.102 106.797C232.379 101.333 250.929 95.6547 265.931 82.3316C266.28 82.0218 266.746 82.4759 266.461 82.8334ZM253.996 114.697C247.645 121.472 240.401 124.896 231.788 127.523C221.89 130.54 209.571 135.332 199.626 134.09C198.395 133.938 197.564 132.096 198.943 131.206C215.146 120.745 235.949 126.254 250.794 111.656C252.797 109.687 255.897 112.667 253.996 114.697Z" fill="#EFF5FA"/>
</svg>
