<svg width="314" height="311" viewBox="0 0 314 311" fill="none" xmlns="http://www.w3.org/2000/svg">
<path d="M164.616 187.94C133.743 176.036 137.494 131.651 165.017 118.367C197.693 102.598 233.723 130.177 237.15 164.312C240.363 196.345 212.937 219.183 185.693 228.423C156.932 238.182 81.3446 234.304 87.4209 282.126C87.6145 283.642 85.39 284.705 84.7506 283.083C75.8409 260.446 94.8742 242.256 114.604 235.295C144.131 224.876 179.926 228.658 205.127 207.333C217.033 197.258 225.961 181.772 222.144 165.628C218.343 149.541 203.523 133.979 186.422 134.218C171.766 134.425 154.923 150.314 164.025 165.851C175.355 185.188 203.713 165.348 186.626 147.335C185.608 146.261 186.569 144.717 187.86 144.658C204.029 143.924 210.461 162.943 203.316 175.555C195.5 189.35 178.786 193.404 164.616 187.94ZM150.495 88.6702C151.159 70.5961 178.276 68.889 191.71 68.1242C209.004 67.1401 225.479 72.217 238.357 84.238C259.387 103.864 275.933 154.114 245.129 172.924C243.273 174.059 240.644 171.852 241.465 169.8C250.858 146.357 246.357 116.974 227.864 98.8363C217.991 89.1524 205.514 85.9869 192.078 86.7602C186.286 87.0916 180.373 88.0071 174.725 89.385C168.913 90.804 163.871 93.9402 158.07 95.1562C154.11 95.988 150.344 92.765 150.495 88.6702ZM159.08 45.794C164.775 32.7907 181.827 29.4848 194.813 28.9635C209.053 28.3926 223.615 32.3605 235.855 39.751C261.828 55.4395 273.689 86.1026 267.354 115.256C267.028 116.757 265.062 116.094 264.965 114.83C263.151 90.6582 252.489 63.5258 231.116 50.6779C220.578 44.3417 208.15 42.3135 196.097 44.2899C185.729 45.9932 177.697 54.3342 167.806 55.4528C162.912 56.0064 156.567 51.5251 159.08 45.794ZM70.1917 265.716C70.3192 248.337 83.5674 236.112 97.8313 228.53C108.998 222.595 121.235 218.722 133.054 214.359C143.006 210.684 153.158 205.739 163.708 204.311C165.005 204.135 165.523 205.741 164.455 206.437C133.009 226.893 85.908 223.949 71.653 265.975C71.3735 266.8 70.1869 266.577 70.1917 265.716ZM71.0059 232.567C79.4506 219.86 91.3244 212.766 105.091 206.995C113.194 203.597 121.465 200.658 129.48 197.042C135.871 194.161 141.633 190.497 148.575 189.274C149.891 189.042 150.968 190.485 150.239 191.678C143.777 202.257 129.696 205.298 118.621 208.862C101.657 214.323 84.4543 219.995 71.5762 233.049C71.2769 233.352 70.7736 232.916 71.0059 232.567ZM80.0843 201.988C85.3809 195.4 91.9295 192.034 99.8854 189.426C109.029 186.43 120.288 181.701 129.978 182.811C131.177 182.947 132.192 184.716 130.974 185.586C116.656 195.815 96.0416 190.686 83.5145 204.892C81.8247 206.808 78.4985 203.962 80.0843 201.988Z" fill="#EFF5FA"/>
</svg>
