<svg width="17" height="17" viewBox="0 0 17 17" fill="none" xmlns="http://www.w3.org/2000/svg">
<path d="M6.73271 14.875H3.1875C2.90571 14.875 2.63546 14.7631 2.4362 14.5638C2.23694 14.3645 2.125 14.0943 2.125 13.8125V3.1875C2.125 2.90571 2.23694 2.63546 2.4362 2.4362C2.63546 2.23694 2.90571 2.125 3.1875 2.125H13.8125C14.0943 2.125 14.3645 2.23694 14.5638 2.4362C14.7631 2.63546 14.875 2.90571 14.875 3.1875V6.73979M10.2839 14.875H14.5208C14.6148 14.875 14.7048 14.8377 14.7713 14.7713C14.8377 14.7048 14.875 14.6148 14.875 14.5208V10.2832H6.375" stroke="#64748B" stroke-width="1.5" stroke-linecap="round" stroke-linejoin="round"/>
<path d="M8.146 8.14648L6.021 10.2715L8.146 12.3965" stroke="#64748B" stroke-width="1.5" stroke-linecap="round" stroke-linejoin="round"/>
</svg>
