<svg width="16" height="16" viewBox="0 0 16 16" fill="none" xmlns="http://www.w3.org/2000/svg">
<path d="M12.1668 9.66732V14.6673M9.66683 12.1673H14.6668M3.00016 6.33398H4.66683C5.5873 6.33398 6.3335 5.58779 6.3335 4.66732V3.00065C6.3335 2.08018 5.5873 1.33398 4.66683 1.33398H3.00016C2.07969 1.33398 1.3335 2.08018 1.3335 3.00065V4.66732C1.3335 5.58779 2.07969 6.33398 3.00016 6.33398ZM11.3335 6.33398H13.0002C13.9206 6.33398 14.6668 5.58779 14.6668 4.66732V3.00065C14.6668 2.08018 13.9206 1.33398 13.0002 1.33398H11.3335C10.413 1.33398 9.66683 2.08018 9.66683 3.00065V4.66732C9.66683 5.58779 10.413 6.33398 11.3335 6.33398ZM3.00016 14.6673H4.66683C5.5873 14.6673 6.3335 13.9211 6.3335 13.0007V11.334C6.3335 10.4135 5.5873 9.66732 4.66683 9.66732H3.00016C2.07969 9.66732 1.3335 10.4135 1.3335 11.334V13.0007C1.3335 13.9211 2.07969 14.6673 3.00016 14.6673Z" stroke="#094B72" stroke-width="1.5" stroke-linecap="round" stroke-linejoin="round"/>
</svg>
