<svg width="15" height="15" viewBox="0 0 15 15" fill="none" xmlns="http://www.w3.org/2000/svg">
<path d="M6.75 15L7.695 14.055C7.575 13.665 7.5 13.245 7.5 12.8175H1.5V2.1825H12V8.25C12.525 8.25 13.0275 8.3475 13.5 8.5125V0L12.375 1.125L11.25 0L10.125 1.125L9 0L7.875 1.125L6.75 0L5.625 1.125L4.5 0L3.375 1.125L2.25 0L1.125 1.125L0 0V15L1.125 13.875L2.25 15L3.375 13.875L4.5 15L5.625 13.875L6.75 15ZM7.7625 11.25C7.9575 10.6875 8.25 10.185 8.655 9.75H2.25V11.25H7.7625ZM11.25 6.75H2.25V8.25H11.25V6.75ZM11.25 3.75H2.25V5.25H11.25V3.75ZM11.25 13.5V15L9 12.75L11.25 10.5V12H14.25V13.5H11.25Z" fill="#64748B"/>
</svg>
