<svg width="20" height="20" viewBox="0 0 20 20" fill="none" xmlns="http://www.w3.org/2000/svg">
<path d="M13.25 9.75C14.2203 9.75 15.041 10.0898 15.7266 10.7744C16.4119 11.4588 16.7514 12.2794 16.75 13.25C16.7485 14.221 16.4086 15.0416 15.7256 15.7266C15.0428 16.4112 14.2223 16.7509 13.25 16.75L13.0693 16.7461C12.1764 16.7062 11.4155 16.3672 10.7744 15.7256C10.0904 15.0411 9.7505 14.2209 9.75 13.25C9.74953 12.2792 10.0895 11.4589 10.7744 10.7744C11.4594 10.0899 12.2797 9.75 13.25 9.75ZM3 2.25H14.5C14.9142 2.25 15.25 2.58579 15.25 3V7.72168C15.25 7.89152 15.0561 8.04983 14.8408 7.98535C14.4918 7.88065 14.25 7.58894 14.25 7.26855V4.5C14.25 3.80965 13.6904 3.25 13 3.25H4.5C3.80964 3.25 3.25 3.80964 3.25 4.5V13.0371C3.25 13.7275 3.80964 14.2871 4.5 14.2871H7.20508C7.56578 14.2873 7.8912 14.5562 8.0127 14.9414C8.04361 15.0394 8.07742 15.136 8.11328 15.2314C8.12884 15.2728 8.14646 15.3136 8.16309 15.3545C7.76124 15.1126 7.23235 15.1641 6.88574 15.5107C6.67271 15.7238 6.32729 15.7238 6.11426 15.5107C5.70597 15.1025 5.04403 15.1025 4.63574 15.5107C4.42271 15.7238 4.07729 15.7238 3.86426 15.5107L3.63086 15.2773C3.38633 15.0332 3.00916 15.0025 2.73145 15.1855L2.61914 15.2773C2.48307 15.4134 2.25 15.3174 2.25 15.125V3C2.25 2.58579 2.58579 2.25 3 2.25ZM13.9746 12.1191C13.1421 11.5992 12.0625 12.198 12.0625 13.1797V13.3203C12.0625 14.302 13.1421 14.9008 13.9746 14.3809L14.0879 14.3096C14.8712 13.82 14.8712 12.68 14.0879 12.1904L13.9746 12.1191ZM5 11.25H7.72168C7.89152 11.25 8.04983 11.4439 7.98535 11.6592C7.88065 12.0082 7.58894 12.25 7.26855 12.25H5C4.72386 12.25 4.5 12.0261 4.5 11.75C4.5 11.4739 4.72386 11.25 5 11.25ZM5 8.25H10.9717C10.5137 8.46153 10.0942 8.72143 9.7168 9.03613C9.55367 9.17216 9.36122 9.2499 9.16895 9.25H5C4.72386 9.25 4.5 9.02614 4.5 8.75C4.5 8.47386 4.72386 8.25 5 8.25ZM5 5.25H12.5C12.7761 5.25 13 5.47386 13 5.75C13 6.02614 12.7761 6.25 12.5 6.25H5C4.72386 6.25 4.5 6.02614 4.5 5.75C4.5 5.47386 4.72386 5.25 5 5.25Z" fill="#64748B" stroke="#64748B" stroke-width="0.5"/>
</svg>
