<svg width="20" height="20" viewBox="0 0 20 20" fill="none" xmlns="http://www.w3.org/2000/svg">
<path d="M9.75 17L10.695 16.055C10.575 15.665 10.5 15.245 10.5 14.8175H4.5V4.1825H15V10.25C15.525 10.25 16.0275 10.3475 16.5 10.5125V2L15.375 3.125L14.25 2L13.125 3.125L12 2L10.875 3.125L9.75 2L8.625 3.125L7.5 2L6.375 3.125L5.25 2L4.125 3.125L3 2V17L4.125 15.875L5.25 17L6.375 15.875L7.5 17L8.625 15.875L9.75 17ZM10.7625 13.25C10.9575 12.6875 11.25 12.185 11.655 11.75H5.25V13.25H10.7625ZM14.25 8.75H5.25V10.25H14.25V8.75ZM14.25 5.75H5.25V7.25H14.25V5.75ZM14.25 15.5V17L12 14.75L14.25 12.5V14H17.25V15.5H14.25Z" fill="#64748B"/>
</svg>
