<svg width="15" height="15" viewBox="0 0 15 15" fill="none" xmlns="http://www.w3.org/2000/svg">
<path d="M11.25 7.75C12.1596 7.75 12.9381 8.04813 13.5967 8.64941L13.7266 8.77441C14.4119 9.45884 14.7514 10.2794 14.75 11.25C14.7486 12.1603 14.4498 12.9385 13.8496 13.5967L13.7256 13.7266C13.0428 14.4112 12.2223 14.7509 11.25 14.75L11.0693 14.7461C10.2361 14.7089 9.51759 14.4115 8.9043 13.8506L8.77441 13.7256C8.09045 13.0411 7.7505 12.2209 7.75 11.25C7.74956 10.34 8.04789 9.56194 8.64941 8.9043L8.77441 8.77441C9.45944 8.08989 10.2797 7.75 11.25 7.75ZM1 0.25H12.5C12.9142 0.250002 13.25 0.585788 13.25 1V5.72168C13.25 5.87035 13.1014 6.01071 12.9199 6L12.8408 5.98535C12.4918 5.88065 12.25 5.58894 12.25 5.26855V2.5C12.25 1.80965 11.6904 1.25 11 1.25H2.5C1.80964 1.25 1.25 1.80964 1.25 2.5V11.0371C1.25 11.7275 1.80964 12.2871 2.5 12.2871H5.20508C5.52055 12.2873 5.8093 12.4926 5.95801 12.8018L6.0127 12.9414L6.11328 13.2314C6.12884 13.2728 6.14646 13.3136 6.16309 13.3545C5.79085 13.1304 5.30931 13.1576 4.96484 13.4385L4.88574 13.5107C4.69947 13.697 4.41189 13.7205 4.2002 13.5811L4.11426 13.5107C3.7315 13.128 3.12549 13.1036 2.71484 13.4385L2.63574 13.5107C2.44947 13.697 2.16189 13.7205 1.9502 13.5811L1.86426 13.5107L1.63086 13.2773C1.38633 13.0332 1.00916 13.0025 0.731445 13.1855L0.619141 13.2773C0.483074 13.4134 0.25 13.3174 0.25 13.125V1C0.25 0.585787 0.585786 0.25 1 0.25ZM11.9746 10.1191C11.1421 9.59915 10.0625 10.198 10.0625 11.1797V11.3203C10.0625 12.2407 11.0118 12.8251 11.8164 12.4658L11.9746 12.3809L12.0879 12.3096C12.8223 11.8505 12.8684 10.8195 12.2256 10.2891L12.0879 10.1904L11.9746 10.1191ZM3 9.25H5.72168C5.87035 9.25 6.01071 9.39863 6 9.58008L5.98535 9.65918C5.88065 10.0082 5.58894 10.25 5.26855 10.25H3C2.72386 10.25 2.5 10.0261 2.5 9.75C2.5 9.47386 2.72386 9.25 3 9.25ZM3 6.25H8.97168C8.5778 6.43191 8.21226 6.64903 7.87793 6.90723L7.7168 7.03613C7.55367 7.17216 7.36122 7.2499 7.16895 7.25H3C2.72386 7.25 2.5 7.02614 2.5 6.75C2.5 6.47386 2.72386 6.25 3 6.25ZM3 3.25H10.5C10.7761 3.25 11 3.47386 11 3.75C11 4.02614 10.7761 4.25 10.5 4.25H3C2.72386 4.25 2.5 4.02614 2.5 3.75C2.5 3.47386 2.72386 3.25 3 3.25Z" fill="#64748B" stroke="#64748B" stroke-width="0.5"/>
</svg>
