<svg width="14" height="15" viewBox="0 0 14 15" fill="none" xmlns="http://www.w3.org/2000/svg">
<path fill-rule="evenodd" clip-rule="evenodd" d="M14 1.56919V3.13834L11.2678 3.13823C12.7033 4.30257 13.5831 6.00655 13.5814 7.86319C13.5788 10.7384 11.463 13.2444 8.4462 13.9453C5.42944 14.6462 2.28312 13.3628 0.809989 10.8304C-0.663101 8.29812 -0.0863264 5.16431 2.20987 3.22466C2.53427 3.70175 2.99167 4.08931 3.53403 4.34663C2.95806 4.77674 2.49364 5.32064 2.17489 5.9384C1.85614 6.55615 1.69116 7.23206 1.69206 7.91648C1.73384 10.4888 4.00182 12.5537 6.78499 12.5534C9.33432 12.5922 11.5083 10.8545 11.8344 8.5171C12.0781 6.77079 11.2322 5.10634 9.756 4.14251L9.75588 7.06129H8.05822V1.56919H14ZM5.08737 0C6.02495 0 6.78499 0.702562 6.78499 1.56919C6.78499 2.43582 6.02495 3.13834 5.08737 3.13834C4.1498 3.13834 3.38972 2.43582 3.38972 1.56919C3.38972 0.702562 4.1498 0 5.08737 0Z" fill="#4C535F"/>
</svg>
